<mxfile host="app.diagrams.net" modified="2022-02-13T18:04:18.579Z" agent="5.0 (Macintosh; Intel Mac OS X 10_15_7) AppleWebKit/605.1.15 (KHTML, like Gecko) Version/15.1 Safari/605.1.15" etag="x5LgREkicBUl4yyaZ28t" version="16.5.6" type="github">
  <diagram id="_34-kTrX6uHlVkdKk4kG" name="Page-1">
    <mxGraphModel dx="1119" dy="1728" grid="1" gridSize="10" guides="1" tooltips="1" connect="1" arrows="1" fold="1" page="1" pageScale="1" pageWidth="850" pageHeight="1100" math="0" shadow="0">
      <root>
        <mxCell id="0" />
        <mxCell id="1" parent="0" />
        <mxCell id="5Lo-Xh0EnRHl1dD-hXu7-1" value="Start" style="rounded=1;whiteSpace=wrap;html=1;fillColor=#FFB570;strokeColor=#d79b00;" vertex="1" parent="1">
          <mxGeometry x="390" y="-260" width="120" height="60" as="geometry" />
        </mxCell>
        <mxCell id="5Lo-Xh0EnRHl1dD-hXu7-3" value="Array arr &lt;br&gt;of length N" style="shape=parallelogram;perimeter=parallelogramPerimeter;whiteSpace=wrap;html=1;fixedSize=1;fillColor=#7EA6E0;" vertex="1" parent="1">
          <mxGeometry x="390" y="-140" width="120" height="60" as="geometry" />
        </mxCell>
        <mxCell id="5Lo-Xh0EnRHl1dD-hXu7-4" value="" style="endArrow=classic;html=1;rounded=0;" edge="1" parent="1">
          <mxGeometry width="50" height="50" relative="1" as="geometry">
            <mxPoint x="449.5000000000002" y="-80" as="sourcePoint" />
            <mxPoint x="449.5000000000002" y="-20" as="targetPoint" />
          </mxGeometry>
        </mxCell>
        <mxCell id="5Lo-Xh0EnRHl1dD-hXu7-5" value="i = 0" style="shape=parallelogram;perimeter=parallelogramPerimeter;whiteSpace=wrap;html=1;fixedSize=1;fillColor=#7EA6E0;" vertex="1" parent="1">
          <mxGeometry x="390" y="-20" width="120" height="60" as="geometry" />
        </mxCell>
        <mxCell id="5Lo-Xh0EnRHl1dD-hXu7-6" value="" style="endArrow=classic;html=1;rounded=0;" edge="1" parent="1">
          <mxGeometry width="50" height="50" relative="1" as="geometry">
            <mxPoint x="449.5000000000002" y="300" as="sourcePoint" />
            <mxPoint x="449.5000000000002" y="360" as="targetPoint" />
          </mxGeometry>
        </mxCell>
        <mxCell id="5Lo-Xh0EnRHl1dD-hXu7-7" value="arr[j] &amp;gt; &amp;nbsp;arr[min] ?" style="rhombus;whiteSpace=wrap;html=1;fillColor=#B5739D;" vertex="1" parent="1">
          <mxGeometry x="410" y="360" width="80" height="80" as="geometry" />
        </mxCell>
        <mxCell id="5Lo-Xh0EnRHl1dD-hXu7-8" value="" style="endArrow=classic;html=1;rounded=0;entryX=0;entryY=0.5;entryDx=0;entryDy=0;" edge="1" parent="1" target="5Lo-Xh0EnRHl1dD-hXu7-14">
          <mxGeometry width="50" height="50" relative="1" as="geometry">
            <mxPoint x="410" y="400" as="sourcePoint" />
            <mxPoint x="290" y="560" as="targetPoint" />
            <Array as="points">
              <mxPoint x="290" y="400" />
              <mxPoint x="290" y="650" />
            </Array>
          </mxGeometry>
        </mxCell>
        <mxCell id="5Lo-Xh0EnRHl1dD-hXu7-9" value="NO" style="edgeLabel;html=1;align=center;verticalAlign=middle;resizable=0;points=[];" vertex="1" connectable="0" parent="5Lo-Xh0EnRHl1dD-hXu7-8">
          <mxGeometry x="-0.6714" y="3" relative="1" as="geometry">
            <mxPoint as="offset" />
          </mxGeometry>
        </mxCell>
        <mxCell id="5Lo-Xh0EnRHl1dD-hXu7-10" value="YES" style="endArrow=classic;html=1;rounded=0;" edge="1" parent="1">
          <mxGeometry width="50" height="50" relative="1" as="geometry">
            <mxPoint x="449.5000000000002" y="440" as="sourcePoint" />
            <mxPoint x="449.5000000000002" y="500" as="targetPoint" />
          </mxGeometry>
        </mxCell>
        <mxCell id="5Lo-Xh0EnRHl1dD-hXu7-11" value="" style="edgeStyle=orthogonalEdgeStyle;rounded=0;orthogonalLoop=1;jettySize=auto;html=1;" edge="1" parent="1" source="5Lo-Xh0EnRHl1dD-hXu7-12" target="5Lo-Xh0EnRHl1dD-hXu7-14">
          <mxGeometry relative="1" as="geometry" />
        </mxCell>
        <mxCell id="5Lo-Xh0EnRHl1dD-hXu7-12" value="min = j" style="rounded=0;whiteSpace=wrap;html=1;fillColor=#97D077;" vertex="1" parent="1">
          <mxGeometry x="390" y="500" width="120" height="60" as="geometry" />
        </mxCell>
        <mxCell id="5Lo-Xh0EnRHl1dD-hXu7-13" value="" style="endArrow=classic;html=1;rounded=0;" edge="1" parent="1">
          <mxGeometry width="50" height="50" relative="1" as="geometry">
            <mxPoint x="449.5000000000002" y="560" as="sourcePoint" />
            <mxPoint x="449.5000000000002" y="620" as="targetPoint" />
          </mxGeometry>
        </mxCell>
        <mxCell id="5Lo-Xh0EnRHl1dD-hXu7-14" value="j = j + 1" style="rounded=0;whiteSpace=wrap;html=1;fillColor=#97D077;" vertex="1" parent="1">
          <mxGeometry x="390" y="620" width="120" height="60" as="geometry" />
        </mxCell>
        <mxCell id="5Lo-Xh0EnRHl1dD-hXu7-15" value="" style="endArrow=classic;html=1;rounded=0;" edge="1" parent="1">
          <mxGeometry width="50" height="50" relative="1" as="geometry">
            <mxPoint x="449.5000000000002" y="680" as="sourcePoint" />
            <mxPoint x="449.5000000000002" y="740" as="targetPoint" />
          </mxGeometry>
        </mxCell>
        <mxCell id="5Lo-Xh0EnRHl1dD-hXu7-16" value="j &amp;lt; N ?" style="rhombus;whiteSpace=wrap;html=1;fillColor=#B5739D;" vertex="1" parent="1">
          <mxGeometry x="410" y="740" width="80" height="80" as="geometry" />
        </mxCell>
        <mxCell id="5Lo-Xh0EnRHl1dD-hXu7-17" value="NO" style="endArrow=classic;html=1;rounded=0;" edge="1" parent="1">
          <mxGeometry width="50" height="50" relative="1" as="geometry">
            <mxPoint x="449.5000000000002" y="820" as="sourcePoint" />
            <mxPoint x="449.5000000000002" y="880" as="targetPoint" />
          </mxGeometry>
        </mxCell>
        <mxCell id="5Lo-Xh0EnRHl1dD-hXu7-18" value="Output arr" style="shape=parallelogram;perimeter=parallelogramPerimeter;whiteSpace=wrap;html=1;fixedSize=1;fillColor=#7EA6E0;" vertex="1" parent="1">
          <mxGeometry x="390" y="1260" width="120" height="60" as="geometry" />
        </mxCell>
        <mxCell id="5Lo-Xh0EnRHl1dD-hXu7-19" value="" style="endArrow=classic;html=1;rounded=0;" edge="1" parent="1">
          <mxGeometry width="50" height="50" relative="1" as="geometry">
            <mxPoint x="449.4100000000001" y="1320" as="sourcePoint" />
            <mxPoint x="449.4100000000001" y="1380" as="targetPoint" />
          </mxGeometry>
        </mxCell>
        <mxCell id="5Lo-Xh0EnRHl1dD-hXu7-20" value="End" style="rounded=1;whiteSpace=wrap;html=1;fillColor=#FFB570;" vertex="1" parent="1">
          <mxGeometry x="390" y="1380" width="120" height="60" as="geometry" />
        </mxCell>
        <mxCell id="5Lo-Xh0EnRHl1dD-hXu7-21" value="" style="endArrow=classic;html=1;rounded=0;entryX=1;entryY=0.5;entryDx=0;entryDy=0;" edge="1" parent="1" target="5Lo-Xh0EnRHl1dD-hXu7-7">
          <mxGeometry width="50" height="50" relative="1" as="geometry">
            <mxPoint x="489" y="780" as="sourcePoint" />
            <mxPoint x="680" y="400" as="targetPoint" />
            <Array as="points">
              <mxPoint x="680" y="780" />
              <mxPoint x="680" y="400" />
            </Array>
          </mxGeometry>
        </mxCell>
        <mxCell id="5Lo-Xh0EnRHl1dD-hXu7-22" value="YES" style="edgeLabel;html=1;align=center;verticalAlign=middle;resizable=0;points=[];" vertex="1" connectable="0" parent="5Lo-Xh0EnRHl1dD-hXu7-21">
          <mxGeometry x="-0.753" y="1" relative="1" as="geometry">
            <mxPoint as="offset" />
          </mxGeometry>
        </mxCell>
        <mxCell id="5Lo-Xh0EnRHl1dD-hXu7-23" value="Swap arr[i] and arr[min]" style="rounded=0;whiteSpace=wrap;html=1;fillColor=#97D077;" vertex="1" parent="1">
          <mxGeometry x="390" y="880" width="120" height="60" as="geometry" />
        </mxCell>
        <mxCell id="5Lo-Xh0EnRHl1dD-hXu7-24" value="i = i &amp;nbsp;+ 1" style="rounded=0;whiteSpace=wrap;html=1;fillColor=#97D077;" vertex="1" parent="1">
          <mxGeometry x="390" y="1000" width="120" height="60" as="geometry" />
        </mxCell>
        <mxCell id="5Lo-Xh0EnRHl1dD-hXu7-25" value="" style="endArrow=classic;html=1;rounded=0;" edge="1" parent="1">
          <mxGeometry width="50" height="50" relative="1" as="geometry">
            <mxPoint x="449.5000000000002" y="940" as="sourcePoint" />
            <mxPoint x="449.5000000000002" y="1000" as="targetPoint" />
          </mxGeometry>
        </mxCell>
        <mxCell id="5Lo-Xh0EnRHl1dD-hXu7-26" value="i &amp;lt; N - 1 ?" style="rhombus;whiteSpace=wrap;html=1;fillColor=#B5739D;" vertex="1" parent="1">
          <mxGeometry x="410" y="1120" width="80" height="80" as="geometry" />
        </mxCell>
        <mxCell id="5Lo-Xh0EnRHl1dD-hXu7-27" value="" style="endArrow=classic;html=1;rounded=0;" edge="1" parent="1">
          <mxGeometry width="50" height="50" relative="1" as="geometry">
            <mxPoint x="449.5000000000002" y="1060" as="sourcePoint" />
            <mxPoint x="449.5000000000002" y="1120" as="targetPoint" />
          </mxGeometry>
        </mxCell>
        <mxCell id="5Lo-Xh0EnRHl1dD-hXu7-28" value="NO" style="endArrow=classic;html=1;rounded=0;" edge="1" parent="1">
          <mxGeometry width="50" height="50" relative="1" as="geometry">
            <mxPoint x="449.4100000000001" y="1200" as="sourcePoint" />
            <mxPoint x="449.4100000000001" y="1260" as="targetPoint" />
          </mxGeometry>
        </mxCell>
        <mxCell id="5Lo-Xh0EnRHl1dD-hXu7-29" value="" style="endArrow=classic;html=1;rounded=0;entryX=1;entryY=0.5;entryDx=0;entryDy=0;" edge="1" parent="1" target="5Lo-Xh0EnRHl1dD-hXu7-61">
          <mxGeometry width="50" height="50" relative="1" as="geometry">
            <mxPoint x="490" y="1160" as="sourcePoint" />
            <mxPoint x="491" y="400" as="targetPoint" />
            <Array as="points">
              <mxPoint x="760" y="1160" />
              <mxPoint x="760" y="960" />
              <mxPoint x="760" y="780" />
              <mxPoint x="760" y="130" />
            </Array>
          </mxGeometry>
        </mxCell>
        <mxCell id="5Lo-Xh0EnRHl1dD-hXu7-30" value="YES" style="edgeLabel;html=1;align=center;verticalAlign=middle;resizable=0;points=[];" vertex="1" connectable="0" parent="5Lo-Xh0EnRHl1dD-hXu7-29">
          <mxGeometry x="-0.753" y="1" relative="1" as="geometry">
            <mxPoint as="offset" />
          </mxGeometry>
        </mxCell>
        <mxCell id="5Lo-Xh0EnRHl1dD-hXu7-61" value="min = i" style="shape=parallelogram;perimeter=parallelogramPerimeter;whiteSpace=wrap;html=1;fixedSize=1;fillColor=#7EA6E0;" vertex="1" parent="1">
          <mxGeometry x="390" y="100" width="120" height="60" as="geometry" />
        </mxCell>
        <mxCell id="5Lo-Xh0EnRHl1dD-hXu7-62" value="" style="endArrow=classic;html=1;rounded=0;" edge="1" parent="1">
          <mxGeometry width="50" height="50" relative="1" as="geometry">
            <mxPoint x="449.5000000000002" y="40" as="sourcePoint" />
            <mxPoint x="449.5000000000002" y="100" as="targetPoint" />
          </mxGeometry>
        </mxCell>
        <mxCell id="5Lo-Xh0EnRHl1dD-hXu7-64" value="" style="endArrow=classic;html=1;rounded=0;" edge="1" parent="1">
          <mxGeometry width="50" height="50" relative="1" as="geometry">
            <mxPoint x="449.5000000000002" y="-200" as="sourcePoint" />
            <mxPoint x="449.5000000000002" y="-140" as="targetPoint" />
          </mxGeometry>
        </mxCell>
        <mxCell id="5Lo-Xh0EnRHl1dD-hXu7-65" value="j &amp;nbsp;= i + 1" style="shape=parallelogram;perimeter=parallelogramPerimeter;whiteSpace=wrap;html=1;fixedSize=1;fillColor=#7EA6E0;" vertex="1" parent="1">
          <mxGeometry x="390" y="240" width="120" height="60" as="geometry" />
        </mxCell>
        <mxCell id="5Lo-Xh0EnRHl1dD-hXu7-66" value="" style="endArrow=classic;html=1;rounded=0;entryX=0.5;entryY=0;entryDx=0;entryDy=0;exitX=0.5;exitY=1;exitDx=0;exitDy=0;" edge="1" parent="1" source="5Lo-Xh0EnRHl1dD-hXu7-61" target="5Lo-Xh0EnRHl1dD-hXu7-65">
          <mxGeometry width="50" height="50" relative="1" as="geometry">
            <mxPoint x="449.5000000000002" y="170" as="sourcePoint" />
            <mxPoint x="449.5000000000002" y="230" as="targetPoint" />
          </mxGeometry>
        </mxCell>
      </root>
    </mxGraphModel>
  </diagram>
</mxfile>
